<svg xmlns="http://www.w3.org/2000/svg" viewBox="0 0 721.08 258.85" role="img" aria-label="NNHC">
  <path fill="currentColor" d="M686.38,206.89c-9.63,2.13-19.2,3.19-28.7,3.19-25.51,0-45.64-6.66-60.4-19.98-14.76-13.32-22.13-33.54-22.13-60.68s7.37-47.36,22.13-60.68c14.75-13.32,34.89-19.98,60.4-19.98,9.5,0,19.07,1.07,28.7,3.19,9.63,2.13,18.2,4.69,25.7,7.69l9-45.13c-9.51-4.71-20.82-8.31-33.95-10.8-13.13-2.48-26.2-3.72-39.2-3.72-22.01,0-41.4,3.25-58.15,9.75-16.76,6.51-30.76,15.51-42.02,27.01-3.56,3.64-6.84,7.49-9.85,11.56V4.5h-59.89v71.07h-.33c.11.77.21,1.55.33,2.31v24.53h-93.16V4.5h-59.89v148.58L222.04,4.5h-59.6v148.93L59.27,4.5H0v249.85h59.27V105.41l103.16,148.93h59.6V105.41l102.92,148.58v.35h59.89v-101.66h93.16v101.66h59.89v-43.82c3.01,4.06,6.29,7.92,9.85,11.56,11.25,11.51,25.26,20.51,42.02,27.01,16.75,6.5,36.14,9.75,58.15,9.75,13,0,26.07-1.24,39.2-3.72,13.13-2.48,24.44-6.08,33.95-10.8l-9-45.13c-7.5,3-16.07,5.57-25.7,7.69Z"/>
</svg>
